<svg xmlns="http://www.w3.org/2000/svg" aria-hidden="true" style="position:absolute;width:0;height:0;overflow:hidden">
  <defs>
    <symbol id="icon-gb" viewBox="0 0 43 32">
      <path fill="#012169" d="M0 0h42.667v32H0z" style="fill:var(--color1, #012169)"/>
      <path fill="#fff" d="m5 0 16.267 12.067L37.467 0h5.2v4.133l-16 11.933 16 11.867V32h-5.333l-16-11.933L5.401 32h-5.4v-4l15.933-11.867L.001 4.266V-.001z" style="fill:var(--color2, #fff)"/>
      <path fill="#c8102e" d="m28.267 18.733 14.4 10.6V32L24.6 18.733zM16 20.067l.4 2.333L3.6 32H0zM42.667 0v.2l-16.6 12.533L26.2 9.8 39.333 0zM0 0l15.933 11.733h-4L0 2.8z" style="fill:var(--color3, #c8102e)"/>
      <path fill="#fff" d="M16.067 0v32h10.667V0zM0 10.667v10.667h42.667V10.667z" style="fill:var(--color2, #fff)"/>
      <path fill="#c8102e" d="M0 12.867v6.4h42.667v-6.4zM18.2 0v32h6.4V0z" style="fill:var(--color3, #c8102e)"/>
    </symbol>
    <symbol id="icon-de" viewBox="0 0 43 32">
      <path fill="#ffce00" d="M0 21.333h42.667V32H0z" style="fill:var(--color4, #ffce00)"/>
      <path fill="#000001" d="M0 0h42.667v10.667H0z" style="fill:var(--color5, #000001)"/>
      <path fill="red" d="M0 10.667h42.667v10.667H0z" style="fill:var(--color6, #f00)"/>
    </symbol>
    <symbol id="icon-pl" viewBox="0 0 43 32">
      <path fill="#fff" d="M42.667 32H0V0h42.667z" style="fill:var(--color2, #fff)"/>
      <path fill="#dc143c" d="M42.667 32H0V16h42.667z" style="fill:var(--color7, #dc143c)"/>
    </symbol>
    <symbol id="icon-nz" viewBox="0 0 43 32">
      <path fill="#00247d" d="M0 0h42.667v32H0z" style="fill:var(--color1, #00247d)"/>
      <path fill="#fff" d="M32.695 7.146v1.011l2.023-1.011z" style="fill:var(--color2, #fff)"/>
      <path fill="#fff" d="m33.099 8.359-.404-.809 2.023-.404z" style="fill:var(--color2, #fff)"/>
      <path fill="#fff" d="M32.695 7.146v1.011l-2.023-1.011z" style="fill:var(--color2, #fff)"/>
      <path fill="#fff" d="m32.291 8.359.404-.809-2.023-.404z" style="fill:var(--color2, #fff)"/>
      <path fill="#fff" d="m33.272 7.565-.962.313 1.587 1.611z" style="fill:var(--color2, #fff)"/>
      <path fill="#fff" d="m32.243 8.325.644-.635 1.01 1.799z" style="fill:var(--color2, #fff)"/>
      <path fill="#fff" d="m32.118 7.565.962.313-.337-2.236z" style="fill:var(--color2, #fff)"/>
      <path fill="#fff" d="m33.397 7.555-.894.135.24-2.049zM32.118 7.565l.962.313-1.587 1.611z" style="fill:var(--color2, #fff)"/>
      <path fill="#fff" d="m33.147 8.325-.644-.635-1.01 1.799z" style="fill:var(--color2, #fff)"/>
      <path fill="#cc142b" d="M32.695 7.352v.668l1.337-.668z" style="fill:var(--color3, #cc142b)"/>
      <path fill="#cc142b" d="m32.962 8.154-.267-.535 1.337-.267zM32.695 7.352v.668l-1.337-.668z" style="fill:var(--color3, #cc142b)"/>
      <path fill="#cc142b" d="m32.428 8.154.267-.535-1.337-.267z" style="fill:var(--color3, #cc142b)"/>
      <path fill="#cc142b" d="m33.076 7.629-.636.207 1.049 1.065z" style="fill:var(--color3, #cc142b)"/>
      <path fill="#cc142b" d="m32.396 8.131.426-.419.667 1.188z" style="fill:var(--color3, #cc142b)"/>
      <path fill="#cc142b" d="m32.314 7.629.636.207-.223-1.478z" style="fill:var(--color3, #cc142b)"/>
      <path fill="#cc142b" d="m33.159 7.622-.591.089.159-1.354zM32.314 7.629l.636.207-1.049 1.065z" style="fill:var(--color3, #cc142b)"/>
      <path fill="#cc142b" d="m32.994 8.131-.426-.419-.667 1.188z" style="fill:var(--color3, #cc142b)"/>
      <path fill="#fff" d="M37.995 11.813v.9l1.8-.9z" style="fill:var(--color2, #fff)"/>
      <path fill="#fff" d="m38.355 12.893-.36-.72 1.8-.36zM37.995 11.813v.9l-1.8-.9z" style="fill:var(--color2, #fff)"/>
      <path fill="#fff" d="m37.635 12.893.36-.72-1.8-.36z" style="fill:var(--color2, #fff)"/>
      <path fill="#fff" d="m38.508 12.186-.856.278 1.412 1.434z" style="fill:var(--color2, #fff)"/>
      <path fill="#fff" d="m37.592 12.863.573-.565.899 1.601z" style="fill:var(--color2, #fff)"/>
      <path fill="#fff" d="m37.481 12.186.856.278-.3-1.99z" style="fill:var(--color2, #fff)"/>
      <path fill="#fff" d="m38.619 12.178-.796.12.214-1.823z" style="fill:var(--color2, #fff)"/>
      <path fill="#fff" d="m37.481 12.186.856.278-1.412 1.434z" style="fill:var(--color2, #fff)"/>
      <path fill="#fff" d="m38.397 12.863-.573-.565-.899 1.601z" style="fill:var(--color2, #fff)"/>
      <path fill="#cc142b" d="M37.995 12.019v.557l1.114-.557z" style="fill:var(--color3, #cc142b)"/>
      <path fill="#cc142b" d="m38.217 12.687-.223-.446 1.114-.223z" style="fill:var(--color3, #cc142b)"/>
      <path fill="#cc142b" d="M37.995 12.019v.557l-1.114-.557z" style="fill:var(--color3, #cc142b)"/>
      <path fill="#cc142b" d="m37.772 12.687.223-.446-1.114-.223z" style="fill:var(--color3, #cc142b)"/>
      <path fill="#cc142b" d="m38.312 12.25-.53.172.874.887z" style="fill:var(--color3, #cc142b)"/>
      <path fill="#cc142b" d="m37.746 12.668.355-.35.556.99z" style="fill:var(--color3, #cc142b)"/>
      <path fill="#cc142b" d="m37.677 12.25.53.172-.185-1.231z" style="fill:var(--color3, #cc142b)"/>
      <path fill="#cc142b" d="m38.381 12.245-.493.074.132-1.128z" style="fill:var(--color3, #cc142b)"/>
      <path fill="#cc142b" d="m37.677 12.25.53.172-.874.887z" style="fill:var(--color3, #cc142b)"/>
      <path fill="#cc142b" d="m38.244 12.668-.355-.35-.556.99z" style="fill:var(--color3, #cc142b)"/>
      <path fill="#fff" d="M26.522 13.361v1.011l2.023-1.011z" style="fill:var(--color2, #fff)"/>
      <path fill="#fff" d="m26.927 14.574-.404-.809 2.023-.405zM26.522 13.361v1.011l-2.023-1.011z" style="fill:var(--color2, #fff)"/>
      <path fill="#fff" d="m26.118 14.574.404-.809-2.023-.405z" style="fill:var(--color2, #fff)"/>
      <path fill="#fff" d="m27.099 13.78-.962.313 1.587 1.611z" style="fill:var(--color2, #fff)"/>
      <path fill="#fff" d="m26.07 14.54.644-.635 1.01 1.799z" style="fill:var(--color2, #fff)"/>
      <path fill="#fff" d="m25.945 13.78.962.313-.337-2.236z" style="fill:var(--color2, #fff)"/>
      <path fill="#fff" d="m27.224 13.77-.894.135.24-2.049zM25.945 13.78l.962.313-1.587 1.611z" style="fill:var(--color2, #fff)"/>
      <path fill="#fff" d="m26.974 14.54-.644-.635-1.01 1.799z" style="fill:var(--color2, #fff)"/>
      <path fill="#cc142b" d="M26.522 13.567v.668l1.337-.668z" style="fill:var(--color3, #cc142b)"/>
      <path fill="#cc142b" d="m26.79 14.369-.267-.535 1.337-.267zM26.522 13.567v.668l-1.337-.668z" style="fill:var(--color3, #cc142b)"/>
      <path fill="#cc142b" d="m26.255 14.369.267-.535-1.337-.267z" style="fill:var(--color3, #cc142b)"/>
      <path fill="#cc142b" d="m26.904 13.844-.636.207 1.049 1.065z" style="fill:var(--color3, #cc142b)"/>
      <path fill="#cc142b" d="m26.224 14.346.426-.419.667 1.188z" style="fill:var(--color3, #cc142b)"/>
      <path fill="#cc142b" d="m26.141 13.844.636.207-.223-1.478z" style="fill:var(--color3, #cc142b)"/>
      <path fill="#cc142b" d="m26.986 13.837-.591.089.159-1.354zM26.141 13.844l.636.207-1.049 1.065z" style="fill:var(--color3, #cc142b)"/>
      <path fill="#cc142b" d="m26.821 14.346-.426-.419-.667 1.188z" style="fill:var(--color3, #cc142b)"/>
      <path fill="#fff" d="M32.695 23.117v1.123l2.245-1.123z" style="fill:var(--color2, #fff)"/>
      <path fill="#fff" d="m33.144 24.464-.449-.898 2.245-.449zM32.695 23.117v1.123l-2.245-1.123z" style="fill:var(--color2, #fff)"/>
      <path fill="#fff" d="m32.246 24.464.449-.898-2.245-.449z" style="fill:var(--color2, #fff)"/>
      <path fill="#fff" d="m33.336 23.582-1.068.347 1.762 1.788z" style="fill:var(--color2, #fff)"/>
      <path fill="#fff" d="m32.193 24.426.715-.705 1.121 1.997z" style="fill:var(--color2, #fff)"/>
      <path fill="#fff" d="m32.054 23.582 1.068.347-.374-2.482z" style="fill:var(--color2, #fff)"/>
      <path fill="#fff" d="m33.474 23.572-.993.15.267-2.274z" style="fill:var(--color2, #fff)"/>
      <path fill="#fff" d="m32.054 23.582 1.068.347-1.762 1.788z" style="fill:var(--color2, #fff)"/>
      <path fill="#fff" d="m33.197 24.426-.715-.705-1.121 1.997z" style="fill:var(--color2, #fff)"/>
      <path fill="#cc142b" d="M32.695 23.323v.78l1.559-.78z" style="fill:var(--color3, #cc142b)"/>
      <path fill="#cc142b" d="m33.007 24.258-.312-.624 1.559-.312zM32.695 23.323v.78l-1.559-.78z" style="fill:var(--color3, #cc142b)"/>
      <path fill="#cc142b" d="m32.383 24.258.312-.624-1.559-.312z" style="fill:var(--color3, #cc142b)"/>
      <path fill="#cc142b" d="m33.14 23.646-.741.241 1.223 1.242z" style="fill:var(--color3, #cc142b)"/>
      <path fill="#cc142b" d="m32.346 24.232.497-.489.778 1.387z" style="fill:var(--color3, #cc142b)"/>
      <path fill="#cc142b" d="m32.25 23.646.741.241-.26-1.724z" style="fill:var(--color3, #cc142b)"/>
      <path fill="#cc142b" d="m33.236 23.639-.69.104.185-1.579z" style="fill:var(--color3, #cc142b)"/>
      <path fill="#cc142b" d="m32.25 23.646.741.241-1.223 1.242z" style="fill:var(--color3, #cc142b)"/>
      <path fill="#cc142b" d="m33.044 24.232-.497-.489-.778 1.387z" style="fill:var(--color3, #cc142b)"/>
      <path fill="#012169" d="M0 0h21.333v16H0z" style="fill:var(--color4, #012169)"/>
      <path fill="#fff" d="m2.5 0 8.133 6.033L18.733 0h2.6v2.067l-8 5.967 8 5.933V16h-2.667l-8-5.967L2.699 16h-2.7v-2l7.967-5.933-7.967-5.933V.001z" style="fill:var(--color2, #fff)"/>
      <path fill="#c8102e" d="m14.133 9.367 7.2 5.3V16L12.3 9.367zM8 10.033l.2 1.167L1.8 16H0zM21.333 0v.1l-8.3 6.267L13.1 4.9 19.667 0zM0 0l7.967 5.867h-2L0 1.4z" style="fill:var(--color5, #c8102e)"/>
      <path fill="#fff" d="M8.033 0v16h5.333V0zM0 5.333v5.333h21.333V5.333z" style="fill:var(--color2, #fff)"/>
      <path fill="#c8102e" d="M0 6.433v3.2h21.333v-3.2zM9.1 0v16h3.2V0z" style="fill:var(--color5, #c8102e)"/>
    </symbol>
    <symbol id="icon-NZ_on_the_globe" viewBox="0 0 32 32">
      <path fill="#b3dff5" d="M31.97 15.999c.044-5.482-2.98-10.847-7.694-13.642C19.523-.578 13.219-.71 8.344 2.018 3.486 4.627.196 9.931.078 15.45c-.282 5.816 2.986 11.621 8.084 14.422 4.838 2.807 11.167 2.751 15.955-.142 4.811-2.767 7.894-8.181 7.854-13.731z" style="fill:var(--color1, #b3dff5)"/>
      <path d="M31.97 15.999c.044-5.482-2.98-10.847-7.694-13.642C19.523-.578 13.219-.71 8.344 2.018 3.486 4.627.196 9.931.078 15.45c-.282 5.816 2.986 11.621 8.084 14.422 4.838 2.807 11.167 2.751 15.955-.142 4.811-2.767 7.894-8.181 7.854-13.731z" opacity=".15" style="fill:var(--color2, #000)"/>
      <path fill="#fdfbe5" d="m15.505.046-.037.018h.018l.018-.018zM8.241 7.911l.159.072-.054-.089-.017-.035.052.017h.018l-.018-.035h.089l-.07-.035.07-.018v-.054l.125.018.46-.319.072-.301.07-.018-.054-.548-.124-.161-.247-.105-.266-.354.105-.212.177-.125.018-.089h.054l-.037-.052L9 5.431l.125-.124.159-.035.035-.089.107.07.124-.089.07.054-.089.107.018.142.089-.019.07-.247.018.052.284-.124.017-.054.161-.017.017-.054h.124l.037-.124.017.07.054-.054.054.018v-.177l.194.142-.017-.054.159-.089v.054l.124-.072.054.037.231-.089.07-.072-.052-.035.194-.054.035-.07.054.035.142-.107-.07-.035.212-.035-.018-.07h.107l-.018-.072h.107l.017-.07.072.035-.018-.124.124-.072h-.089l.054-.017-.054-.054.107.018h.035l.212-.249-.052-.017.247-.054-.054-.072.107-.052-.072-.037.126-.017.017-.072-.142.037.196-.089h-.054l-.142-.037-.266.037.443-.161-.229-.124h.247l-.212-.107-.054-.247-.054-.018-.177-.017.018-.035.212-.126.07-.052-.035-.018.124-.018.037-.07.282-.07h.107l.07-.072-.408-.017-.177.07-.194.07-.018-.14h-.231l.054-.089.266-.054.249-.124.229-.125.196-.035.054.054-.249.159.142-.017-.194.105.567-.194h.389l-.107.105.089.018-.14.018-.072.07.124-.018-.07.037.124-.018.018-.018.194.037.054.124-.07-.035-.107.052.072.037.017-.037-.017.072h.089l-.161.159.072.054-.089.018.052.035.177-.089.018.054.035-.072.072.054-.018-.07.159.035.054-.072.107.018.124-.142-.019-.142-.194-.194-.212-.072.052-.052.48-.161.035-.105.194-.072v-.035h.126l.105-.089.266.07.426-.089.567-.282.336-.196.053-.035v-.07l-.018-.054.161-.107-.174-.068V.444l.096.015.006.002.037-.017-.266-.054.006.006-.009-.002s-.02-.029-.033-.024-.175.004-.175.004l-.018.015-.186.02.037-.033-.129.015-.004-.033-.185-.002-.046-.02.421-.065.269-.057.319-.035.443.017.07.018.035-.018.354.037h.035l.426.052-.161-.017.054.017.338.037-.018-.018h.177l.373.054h.035v.017h.054l.052.018h.018l.092.013-.146-.031-.006-.006-.137-.03-.072-.009h-.002l-.015-.007H19l-.035-.018h-.018L18.862.29l-.004-.004h-.018l-.065-.011-.006-.006h-.026l-.092-.017h-.002L18.645.25h-.011l-.065-.011h-.002l-.011-.006h-.072l-.02-.004-.011-.011.068.015-.072-.018-.12-.015-.004-.004h-.035l-.079-.013-.009-.004h-.018L18.068.17l-.026-.009h-.105l-.054-.017h-.089l-.053-.018h-.105l-.053-.018h-.107l-.053-.017h-.159l-.053-.019h-.247L16.91.055h-.301l-.053-.018h-.018v.011l-.513.024-.054.035h-.017l.07-.035h-.011l-.273-.02s-.409.008-.515.017c-.004 0-.004.001-.006.002l.52-.015-.46.017.035.019-.196.017-.637.072.725-.089.072-.019h-.159l-.303.015h-.013l-.006.002h-.005l-.011.002h-.124l-.039.013-.007.002-.026.002h-.14l-.005.006-.048.013h-.107l-.017.009h-.002l-.035.009h-.089l-.026.007-.044.009h-.089l-.054.018h-.089l-.066.017h-.039l-.054.018h-.072l-.092.018h-.031l-.054.017h-.035l-.054.018h-.052l-.054.017h-.035l-.054.018h-.054l-.035.018h-.054l-.035.017h-.054l-.054.018h-.035l-.041.013-.03.004h-.018l-.017.005-.09.013.079-.009-.037.007.026-.004-.015.006h-.035l-.054.018h-.035l-.054.017h-.035l-.037.018h-.017l-.035.017h-.035l-.054.018h-.035l-.035.018h-.054l-.013.007-.041.009-.054.018h-.017l-.026.013-.017.004h-.03l-.054.018-.052.018h-.018l-.054.017h-.017l-.037.018h-.035l-.035.017h-.035l-.054.018-.018.018h-.035l-.017.017h-.054l-.035.018-.037.017h-.035l-.035.018h-.018l-.035.018h-.035l-.018.017h-.035l-.035.018h-.018l-.035.016h-.017l-.031.017-.005.002-.028.015L11 .847l-.004.002h-.017l-.028.013-.007.002-.002.002h-.02l.02-.009-.026.009h-.009l-.004.004-.041.015h-.009l-.03.015-.006.002H10.8l-.031.017-.004.002h-.002l-.098.035h-.026l-.007.009h-.002l-.044.009-.177.07-.052.018-.037.017-.052.018-.044.018.041-.015-.015.015h-.035l-.03.015-.006.002-.013.013-.024.006h-.004l.039-.017-.052.017-.072.035.061-.026-.007.007-.035.018h-.035l-.007.007-.011.011h-.011l-.037.017h-.005l-.052.018-.033.017h-.004l-.03.017-.006.002-.046.018h-.007l-.035.017-.009.011h-.002l-.017.007h-.011l.039-.018h-.017l-.107.054-.031.015-.007.004-.005.004-.033.013h-.011l-.035.018-.035.017h-.018l-.107.054-.007.007-.018.009.026-.017-.035.018-.004.004-.02.009-.011.004.035-.017-.054.017-.015.017-.002.002-.046.022-.026.013h-.017l-.011.011-.089.042.035-.015-.031.015h-.011l-.035.018-.007.006-.002.002-.037.018-.017.009h-.007l-.037.017-.004.006h-.002l-.002.002-.024.011h.007l.013-.007-.004.006-.002.002h-.007l-.035.018h-.011l-.035.017-.107.054-.035.018-.105.052h-.002l-.002.002-.033.017-.017.018-.018.017-.035.018h-.018l-.035.017-.018.018-.035.018-.017.017h-.037l-.017.018-.035.017-.009.009-.009.009-.035.018-.035.017h-.018l-.018.018-.035.017-.015.017-.002.002-.107.054-.035.017-.018.018-.017.018-.004.002-.033.015-.015.017-.002.002-.035.017-.037.018h-.017l-.018.018-.035.017-.018.018-.035.017-.017.018-.017.017-.037.018-.002.002-.033.017-.019.017-.002.002-.033.017-.072.035-.035.035-.017.018h-.018l-.019.018-.035.017-.07.035-.013.026-.022.011-.017.017H7.15l-.07.035-.018.018-.035.018-.035.035h-.018l-.018.017-.035.018-.015.017-.002.002-.037.017-.035.035-.035.018-.018.018-.035.017-.006.013-.011.006-.037.035-.035.018-.035.017-.013.026.096-.059.201-.144-.142.107-.059.037-.172.122-.1.068-.131.109-.194.142.209-.166-.015.007-.035.017-.005.009-.013.009-.035.035-.035.018-.013.022-.022.013-.054.035-.035.035-.035.018-.013.013-.004.002-.072.074-.037.017-.07.072-.035.017-.089.089-.035.018-.018.018-.035.017-.018.035-.017.018-.037.018-.07.07-.035.018-.018.017-.017.035-.033.017h-.002l-.002.002-.007.009-.009.009-.002.002-.033.015-.011.022.041-.033-.048.046.007-.013-.061.05.035-.018-.089.07-.301.303-.054.035-.229.231-.019.035-.035.017-.018.037-.035.017-.018.035-.035.018-.017.035-.126.124-.017.037-.035.017-.018.035-.035.019-.018.035-.07.072-.018.035-.035.017-.018.037-.052.052-.018.037-.07.07-.018.035-.035.018-.018.035-.07.07-.018.037-.054.052-.017.037-.054.052-.018.037-.07.07-.018.035-.052.054-.018.035-.018.018-.017.035-.054.054-.018.035-.017.018-.018.035-.054.054-.035.07-.035.018-.018.035-.017.017-.035.072-.037.017-.035.072-.017.017-.037.072-.035.017-.035.072-.018.017-.017.037-.018.035-.017.017-.037.037-.017.035-.018.017-.03.059-.024.013-.017.035-.018.018v.017l-.017.018-.018.035-.018.018-.017.035-.018.017-.017.037v.017l-.018.019-.018.017-.015.033-.002.004-.018.017-.017.035-.018.018v.019l-.018.017-.017.035-.018.037-.035.035v.017l-.018.037-.017.017-.018.035-.017.018-.037.07-.017.018-.018.035v.018l-.017.035-.037.035v.035l-.017.018-.035.035v.035l-.028.044-.002.002-.007.007-.018.039-.002.004-.05.081.07-.14-.1.19-.002.002-.011.02.006-.007.018-.028-.017.035.07-.124.089-.107.443-.602-.07.159.054-.054-.072.161.018-.018.035-.054v.018l.035-.035-.054.105.089-.124-.07.107v.07l.159-.142-.07.124-.159.161.052.177.196-.231.124-.266.072-.035-.089.089-.018.07.054-.035-.072.107-.017.089-.107.229-.194.781.035.921v.461l.124.105.089-.124.054-.177.142-.142-.037-.017.054-.161.035-.07.089-.054.054-.319.054-.177.018-.035v-.007l.089-.205.048-.365.004-.007v-.017l.072-.161.105-.07.089-.161.177-.159.037-.107.389-.425.212-.319.266-.231.177-.212.018-.124.194-.142.072-.124-.018.124.107-.142.035.072.035-.107.019.054.07-.089.035.035.054-.124.018.107.124-.196-.035.107.052-.037.018-.124.142-.054.07.443.089-.105-.054.105.142-.017.017.094.002-.006v.354l-.161.371.107-.089-.07.107.052-.07.054.052.054-.089.054.054.07-.124.142-.089-.035-.07.054.052.105-.105.035-.142.054.177.089-.035-.07.371.017.284.037-.107.07.231-.089.212.07.037-.124.247v.159l.054-.089-.019.089-.14.443.089-.07.266.319.017.035.072.513.159.319.496.249.105-.125.089.054-.194-.301.017-.424-.052-.177-.354-.266-.249-.018-.07-.336-.018-.126-.142.037.018-.161v-.089l.247-.46v-.019l.005-.028V7.71l.013-.022v-.035l.018-.159.229-.107-.052.196.212-.072.177.072.07.266.107-.089v.159l.054-.07.266.089-.089.301.105-.018.231-.194-.069-.125zM19.236.376l.113.024h.017l-.135-.03.006.006zM19.231.37l-.006-.006h-.018l.024.006zm.157.043.031.006.068.013-.05-.013-.05-.006zm.099.018.092.022.124.035-.177-.035h-.107l-.124.017-.177-.017-.035.035.054.07.513.319.177-.054-.07-.07.229.054h.018l-.089-.072-.035-.017h.017l.249.035-.142-.089.159.035-.212-.089h.035l-.212-.054V.521l.354.072.07.015-.035-.015-.052-.018h-.037l-.41-.111-.05-.013-.127-.022zM6.061 6.582l-.002-.011-.007.015.009-.004zm-.009.004-.098.033.054.07.044-.103zm-4.073 1.84-.065.105.018-.017.046-.089zm-.046.089-.018.035-.002.005-.015.03-.018.018-.017.054-.026.052-.007.011-.055.096.033-.05-.033.068.098-.185.026-.046.017-.035v-.002l.028-.061-.009.009zm.009-.01-.009.026.018-.035-.009.009zm-.168.311-.037.07.006-.007.031-.063zm-.031.062-.022.044v.017l-.007.013-.081.148-.107.229.089-.177-.007.018-.098.196v.017l.066-.14-.015.035-.052.105v.018l-.161.319v.035l-.035.07-.018.054-.052.107v.035l-.089.177v.035l-.054.107v.035l-.018.035-.017.054.052-.124.089-.231.089-.177.107-.284.054-.124v.018l.266-.55.07-.177-.022.028-.004.005-.022.03zm-.677 1.586-.037.07v.033l.037-.103zM6.44 3.249l.1-.085-.035.017-.072.072.007-.004zm-.008.004-.035.017-.017.018.052-.035zm2.411-1.506.039-.018h-.004l-.035.018zm1.175-.531.02-.009-.024.009h.004zm.932-.347-.017.009.05-.017h-.013l-.02.007zm.089-.026h-.017l-.028.015.044-.015zm3.774-.748.249-.015.052-.017-.07.017-.194.009-.037.006zM14.85.09l.087-.009h-.035l-.076.011.024-.002zm-.024.002h-.011l-.005.002.017-.002zm.075-.011h-.054l-.022.007.076-.007zm3.165.099.096.007h-.072L18.066.18zm.279.034.083.009h-.037l-.046-.009zm.266.116.153.017L18.71.33h-.1zM17.116.4l.098.031L17.188.4h-.072zm.098.031.004.004h.006l-.009-.004zm.003.004-.155.018v.07l.126.089.017.072.072.354.07-.072.177.035.018.054.035-.035-.249-.142.053-.105h.177l.161.052-.177-.124-.196-.105-.129-.161zm2.68.124.037.018.089.018-.125-.037zm.305.053.087.018-.037-.018h-.05zm.096.022.042.013h.018l-.061-.013zm.061.013.1.033-.081-.033h-.018zm.018 0 .046.017-.029-.017h-.017zm-8.292.019h.054l-.214.107-.212.07h.054l-.496.159-.124.054-.212.072-.124.017.247-.07.284-.107.371-.142.373-.159zm8.382.018.05.017-.035-.017h-.015zm.05.017.054.018-.033-.018.018.006.05.013-.035-.018h-.028l-.042-.017h-.015l.05.017h-.018zm.074.018.103.035-.035-.018-.013-.004-.055-.013zm.068.017.089.026V.755l-.089-.018zm.089.026v.007l.249.074-.089-.035-.16-.046zm.249.081.14.054-.017-.018-.124-.035zm-.249-.074-.054-.015.054.018V.768zm-1.187.092-.089.035h.107l-.018-.035zm-8.659.032-.004.004h-.011l.015-.004zm-.266.086-.004.006-.046.017h-.007l-.013.007h-.002l-.03.011h-.009l.054-.018.057-.022zm-.138.05-.002.004-.002.002-.057.02h-.009l.044-.017h.002l.024-.009zm-.087.033-.002.002-.024.009h-.009l.035-.011zm6.847.012-.053.231-.212-.018.054.054-.107.017-.035.018.054.124v-.017l.231-.018-.177-.054.017-.035.124.035.126-.035.336.089.124-.089.354-.035h-.105l-.018-.107-.107.035-.194-.017-.408-.177zm-6.937.022-.024.013h-.011l.035-.013zm8.107.066-.142.089.319-.072-.177-.017zm-.319.07-.072.054-.017.035.177-.07-.089-.018zm-8.178.022-.026.013h-.007l.033-.013zm-.483.205-.004.004-.035.018-.007.007-.02.009h-.017l.083-.039zm7.686.057.07.07-.177-.054-.07.037-.018.035-.017.07h.07l.018.035-.018.037-.124.159-.443.177-.107-.054.107-.054-.124.018-.161.231-.674.017-.513.196v.054l.284.017.07-.089.035.054.373-.105h.266l-.072.124.161.054.07-.037.196-.07-.089-.07.054-.054.035.054.017-.037.089.018-.07.035h.266l.124-.07.018.07.07-.089.124.018.018-.072.035.018h.035l-.017.054-.018.035h.018l.177-.107-.072-.07.089-.107-.035-.159h.124l.089-.159-.159-.231h-.124zm-7.928.061-.009.009h-.011l.02-.009zm6.439.842-.177.072-.035-.035-.231.124.107-.018.035.107.089-.035.142-.089.142.035.124-.089-.035-.054-.16-.018zm-.672.088-.338.089.107.072-.089-.035.017.07.142-.018-.054-.07.089-.018.037.089-.142.196.105.054.054-.089-.035.105.159-.07.196-.247-.247-.125zm-.372.851-.142.054.054.035.089-.089zm-2.056.709-.406.354-.037.107.177.194.373-.602-.107-.054zm-.406 1.347-.107.513-.107-.035h-.017l-.054.089.054.196.017.052.089.072.037-.089.089.017-.089.196.159.035.124-.105.212.159v-.177l.196.196h.177l.018.089.035-.125-.107.018-.054-.107.107-.035-.054-.054-.124-.017-.054.089-.07-.124-.142.017-.018.089-.14-.105-.054-.196.319-.354-.072-.177.054-.124h-.425zm-2.357.054-.389.089-.177.159.052.177.126.018.212-.142.194-.231-.017-.07zm8.786.886-.089.017.018.054.07-.07zm-6.607.14.105.107.072.159.089-.017.052-.196-.317-.053zm1.257.088-.231.019.196.177-.017.094-.002-.006-.177-.035.018.142.159.212-.017-.089h.089l-.066-.21.209.05-.072-.266-.089-.089zm-.513.054-.018.142.105-.07-.087-.072zm-.354.177v.338l.319-.196v-.107l-.072.054-.247-.089zm.566.089-.159.319-.072.124.078-.124h.011v-.018l.124-.089.018-.212zm-1.205.088-.017.161-.072-.037v.107l-.567.567.231-.159.212-.266.018-.018.229-.142-.035-.212zm.975 0-.105.212-.037.037-.089.035.161.177.07-.072-.017-.159.105-.196-.089-.035zm.249.177-.054.035-.054.054.054.035.159-.035v-.07l-.105-.018zm.336.054.018.196h-.196l-.018.124-.105-.019-.196.161.054-.107-.124-.07-.319.212-.089.212.07.035.125-.212.212.089.07-.124.161.089-.054.247.247.107.072-.054.035.124.07-.105-.07-.177.089-.142.124.231v-.142l.124-.107-.054-.282-.089-.018.054-.159-.212-.107zm-.956.797v.089l.089-.07-.089-.018zm-6.805.07-.07.072.035.054.035-.126zm5.423.019-.249.389-.124.054.054.035-.07.089-.354.142-.249.389-.424.177-.072.354-.317-.017-.054-.089-.196.266v.212l.089.054-.035.14.124.037h-.089l.107.07-.054.089.124-.07.089.46.354-.105.054.177.284-.214.159.037v.089l.231-.072.035.212.107-.052.317-.284-.052-.07.07.017.07-.212-.124-.07.142-.214.054.037.194-.142-.052-.212.159-.196-.035-.089.124.07.159-.07-.301-.177-.017-.089.089-.035-.284-.284.196-.035-.089-.124.301-.089-.107-.107.301-.159-.229-.072-.107.037.018-.089-.126.052.054-.124-.142-.124-.089.124-.017-.124zm18.656.088.052.089.037.035-.072-.124h-.017zm.212.301.07.107.018.017-.089-.124zm.142.231.124.301.054-.017-.177-.284zm-15.856.159-.072.161.072-.018v-.142zm-.161.107-.159.319.07.319.212.159-.105-.159-.035-.177.282.035-.212-.124.142-.089.017-.125-.301.177.107-.105-.018-.231zm-5.191.177-.07.07.035.072.054-.089-.019-.054zm4.429.018-.336.229-.832-.052-.072.159-.089-.035-.07.07-.018.035-.035.177-.054-.017.072.212-.054-.054-.107.142.018.196-.159.247.052.196.161-.018v.373l-.018.159.161-.018h.124l-.089-.69.142-.107.089.018-.037.231.177.105v.177l.126.037.017-.126.212-.035-.194-.194.089-.126-.338-.301.107.018.478-.354-.496.054-.14.177h-.107l-.177-.177.07-.266 1.082-.107.247-.336zm-7.689.194.018.089.035-.07-.054-.018zm.763.177-.478.089.052.212.266.142.177.284.231.07.072.354.194.142.089.054.301.531.585.408.142.124-.018-.107.161.035.017-.105.107.105.07-.725-.124-.196-.177.018-.035.089.035-.142h-.105l-.018-.247-.266-.018.107-.266-.089-.054-.161.124.107-.089-.054-.052-.107.017-.317-.301-.018.142-.266-.266-.354-.124.035-.089-.159-.161zm1.186.781h.035l-.07-.054-.054-.018-.019.072h.107zm7.423-.781-.301.035.212.018.089-.054zm.319.035-.336.142-.089.161h.301l.089.212.461-.072-.089.177-.126-.089-.14.107h-.214l.249.124.017.212.161-.07.089-.247-.054.159.107.089.266.018-.089.052.159.089.816.249-.018.089.089-.018v.177l.142.142-.107.035.196.054-.161.018.142.089-.054.194.284-.07.301.336.301-.017.107.07.212-.142-.319-.177.408.035-.089-.089.161.037-.089-.161.247.124-.035-.105.035.07.07-.07.018.089.336.124.391.531.035.035.532.124.105.107.196-.107-.231-.07-.035-.018-.035-.052.07-.054-.194-.054v-.142l-.177.018-.107-.284-.247-.194-.072-.196h.249l-.054-.142-.496-.212v-.159l-.336-.303-1.24-.478-.585-.212-.231.089.018.089-.214.018-.177.229-.177.072-.14-.231-.037.107-.089-.142-.052-.426-.426-.088zm-1.345.054-.089.035v.018l.052.089.125-.018-.089-.124zm2.161.018.177.142.105-.018-.282-.124zm-1.205.089-.107.017.089.089.019-.105zM3.103 9.86l-.037.037-.017.017h.017l.054.018h-.054l-.017.105-.007.033-.011.02v.028l-.054.238-.017-.054.017.266.018.231.177-.159.107-.249-.037-.301-.14-.231zm10.735.054-.07.072h.212l-.035-.037-.107-.035zm2.161 0 .161.054h.247l-.408-.054zm-3.454.053.018.089.159-.089h-.177zm2.037 0-.177.054.161.017.017-.07zm-1.594.07-.035.107.249-.07-.214-.037zm-5.155.072-.089.07h.054l.035.035v-.105zm11.481.054-.249.017.124.018.126-.035zm-12.048.051.017.089v.018l.054-.089-.07-.018zm6.962.054-.244.076.085.101.389-.054.266.126-.142-.231-.354-.018zm-.244.076-.004-.004-.004.007.007-.004zm-.007.003-.031.009-.035.124.066-.133zm-8.093-.061-.072.017.177.054-.105-.07zm7.724.089-.212.07.177.124.161-.07-.126-.124zm6.882.238.135.116.142.319.035-.177-.312-.259zm-12.692-.185v.07l.124-.018-.124-.052zm-1.631.071-.052.054.07.089.089.054.018-.107-.125-.089zm-5.142.075-.048.101v.035l.048-.137zm-.048.137-.037.072v.031l.037-.103zm7.21.035-.177.054-.054.124.159-.017.054.159.177.018.035-.124-.14-.018-.054-.196zm4.411.037-.07.177-.035.194.14-.124-.07-.035.035-.212zm-11.662.042-.031.063-.017.054v.018l.048-.135zm-.048.135-.018.052.018-.035v-.017zm19.506-.126.054.177-.212.142-.212-.017v-.125l-.072.125-.408-.018.338.212.389-.035.284-.124-.037-.107.126-.159-.072-.054-.177-.018zm-7.884.037-.105.035-.018.159.089.018.018-.124.017-.089zm-3.933.035-.018.177h.107v-.018l.07-.142-.159-.017zm7.194 0-.107.089.018.07-.037.249.161-.177-.035-.231zM.87 11.013l-.018.035v.02l.018-.055zm-.019.056-.015.044.015-.03v-.015zm5.67-.039-.07.089.142.107-.072-.196zm-5.686.089-.018.035v.024l.018-.059zm-.019.059-.009.031.009-.02v-.011zm-.009.031-.026.052v.029l.026-.081zm-.026.081-.018.059.018-.054v-.006zm-.018.059-.017.035-.015.068.031-.103zm-.031.104-.127.428-.054.212-.057.269-.013.015-.072.317-.011.072.007-.015.004-.02v.009l-.004.011-.007.031.011-.035-.022.096.006-.031-.009.041.004-.007v.004l-.006.028-.004.006.006-.03-.009.018v.028l-.009.046-.007.015v.018l-.018.089-.011.074.011-.046v.026l-.011.02-.002.005-.002.006-.004.004v.022l-.013.077-.004.007v.013l-.007.052.007-.039v.026l-.006.011-.002.002-.004.011-.007.013v.03l-.017.076.017-.07v.054l-.017.017v.089l-.018.035v.072l-.018.035v.107l-.017.017v.089l-.018.035v.107l-.017.054v.105l-.018.037v.14l-.018.054v.142l.207-1.511.007-.013v-.031l-.006.037-.006.006.011-.042v-.004l.017-.07.002-.017.017-.072v-.018l.089-.389.089-.408.159-.567.004-.02zm-.589 3.12-.017.035v.124l.017-.159zm-.017.159-.009.09.009-.018v-.072zm-.009.091-.009.017v.07l.009-.087zm-.009.086-.007.175.007-.015v-.161zm-.008.176-.009.02v.212l.009-.233zm-.009.232-.004.131.004-.007v-.124zm-.004.131-.015.03v.548l.015-.578zm-.014.578v.496l.019.035v.338l.015.031-.033-.901zm.033.901.002.039v-.035l-.002-.004zm.291-4.16-.006.017v.018l.004-.009.002-.026zm20.847-1.506.07.231.126.177h.105l-.301-.408zm-14.439.158.07.124v-.089l-.07-.035zm9.957.054-.159.231h.105l.266-.089.037-.124-.249-.018zm-3.367.124-.035.089.284-.089h-.249zm8.292.053.124.196.142.052-.266-.247zm-8.681.089-.035.089.177-.035.017-.054h-.159zm-3.543.018-.159.159-.373.054-.159-.124-.55.017-.054.177-.142.107.319-.018-.017.107.354.017.247-.07.461.054.849-.035.161.017-.035-.159-.018-.089-.336.035-.161-.212-.389-.035zm.904.301.159.159.159-.142-.194-.017h-.124zm-.126-.284-.336.054.196.035.14-.089zm2.322 0-.107.142.142-.07-.035-.072zm-.107.142-.247.035-.301-.07-.107.105-.054.054h.054l.443-.017.212-.107zm.497-.142-.089.035.054.054.035-.089zm.815 0-.585.107-.389.282-.018.107-.035.107.142-.037.142-.089.744-.478zm-13.129.053-.035.124v.018l.035-.142zm10.614.089-.054.054.159.089-.319-.035-.089.089.072.105.567-.194-.336-.107zm10.912.053.142.177.231.177-.373-.354zm-11.339.054-.07.14.159.018.018-.159h-.107zm11.074.035-.054.07.161.124-.107-.194zm-10.099.105-.266.107.266.107h.018l.124.052.089-.089-.212-.159-.018-.018zm10.896.126.089.266.089.124-.177-.389zm-4.765.07-.107.07-.017.284-.142.142.105.017-.14.338.035.336-.301.692-.161-.018h-.105l-.142-.177-.62-.284-.338-.282.177-.338-.052-.105.159-.018v-.124l.142-.124-.124-.124-.142.177v-.126l-.107.037.072-.072-.177.107-.142-.107-.161.072-.052-.126-.126.037-.406-.196-.054.054.247.089.018.142-.354.035-.054-.054-.124.089.054.07-.107-.07.035.089h-.105v.177l-.142.054-.107.231.177.089-.105.14-.089-.089-.037.126-.017-.107-.142-.035-.089.089.035.124-.054-.089-.035.089.054-.212-.231-.212-.142-.037-.07.142-.018-.089-.089.089-.052-.089-.018.212-.089-.105-.124.142.105.105-.177.018.126.105-.161-.089-.07.126.035.089.054-.054-.072.159h.142l-.142.054-.229-.089v.142l.124.035v.124l-.107-.07.018.177-.196-.338-.177.266.072.231-.303.426-.266.089-.229.089-.408.266-.142-.037-.478.426-.054.212-.107-.177-.035.727.266.495-.089-.089-.031.065.05.113-.177-.105.532.762.07.229.035.142.266.373.018.371-.142.072.072.231.371.14.284-.017.371-.389h.018l.797-.072.142-.266.371-.231 1.205-.282.727.266-.035.124.159.07.177.391-.089-.018.196.124v-.124l.424-.424v-.142l.035.301-.124.159v.196h-.089l-.054.107.212-.037.089-.266.107.177-.124.231.177-.035.142.124.035.089-.018-.035.018.284.053.07.124.159.62.266.319-.266.035.089-.107.037h.196l-.035.07.177.142v-.089l.389-.177-.107.035.054-.054.513-.053.107-.478.177-.159-.054-.054.196-.354.354-.247-.035-.089.212-.284.089-.284.142-.354-.089-.389.089-.371-.284-.568-.212-.177v-.317l-.018.089-.142-.177v.159l-.052-.089-.054.054-.161-.674-.62-.424-.052-.55-.142-.142.017-.408-.212-.229-.212.052-.035-.443-.266-.602zm-7.225 4.652-.074-.17.07.177.004-.007zm3.912-4.528.159.196.159-.142-.14-.018-.054.054-.124-.089zm7.847.018-.035.054.107.052.194.107-.194-.159-.072-.054zm-7.847.017-.089.125.159-.018-.07-.107zm8.22.302.159.194.107.035-.266-.229zm7.865.14-.017.018.035.089-.018-.107zm-14.35.161-.089.105-.017.072.159.017-.054-.194zM.32 13.21v.017l-.007.015.007-.031zm23.671 1.098-.018.089.018.196.107-.018-.107-.266zm.07.408.037.142.07.035-.054-.177h-.054zm.319.813-.035.054v.018l.07.017-.035-.089zm2.375.072-.319.07.266.089.017-.089-.089.035.126-.105zm-3.597.035.159.408.408.371-.567-.779zm3.189.143-.231.105.107.125.159-.018-.035-.212zm-5.918.69-.089.196.018.089.07-.284zm-20.321.603v.07l.007.015-.007-.085zm.007.085.011.127v-.107l-.011-.02zm.011.128v.089l.017.035-.017-.124zm.338 1.4.017.087.054.231.017.159-.017-.017.052.159-.017.018.07.247-.035-.105.035.177.018.052v.072l-.018-.107.018.124.035.107-.018-.035.037.319.105.371.212.532.142.426.107.266.301.532.054.017-.054-.336-.674-1.879-.089-.231-.017-.124-.107-.301v-.054l.054.107-.035-.177-.177-.532-.07-.105zm-.072.406.035.124v-.017l-.035-.107zm.035.107.018.017-.018-.07v.054zm-.018.035v.054l.013.011.006.033v-.028l-.007-.015-.011-.055zm.018.098v.044l.013.024v.002l.006.026v-.035l-.009-.007-.009-.054zm.018.096v.018l.017.07v-.052l-.017-.037zm.017.089.018.079v.009l.004.009.013.054v.009l.004.007.015.063v-.054l-.019-.035v-.054l-.017-.035v-.017l-.018-.037zm.054.23v.018l.035.12v.004l.006.011.013.042v.017l.011.022.002.006.004.017v.028l.018.035v.035l.018.035v.018l.007.007.009.037v.009l.006.011.013.05v.009l.006.013.011.041v.018l.013.022.006.018v.029l.018.035v.035l.035.072v.017l.017.037v.035l.024.044.002.004.011.022-.018-.07-.018-.063v-.009l-.006-.011-.1-.343-.054-.177v-.002l-.018-.057v-.011l-.007-.017-.009-.024v-.013l-.009-.017-.009-.033v-.02l-.017-.035v-.037l-.018-.035zm.284.975v.035l.017.037v.035l.035.07v.035l.037.072-.089-.284zm.088.284v.035l.029.061-.029-.096zm.03.096.006.015v-.006l-.006-.009zm.005.015v.031l.026.05-.026-.081zm.026.081.028.09v-.035l-.028-.055zm.028.09v.018l.018.039-.018-.057zm.018.058.017.05.017.044v-.026l-.033-.068zm.034.094v.009l.011.024-.011-.033zm.011.033.042.113v-.031l-.042-.081zm.042.113v.006l.009.017-.009-.022zm.009.022.026.072.018.044v-.028l-.044-.089zm.045.116v.007l.017.033-.017-.041zm.016.041.037.09v-.017l-.037-.074zm.037.09v.018l.048.098-.048-.116zm.048.116.022.053v-.009l-.022-.044zm.022.054v.026l.018.018-.018-.044zm0 .026.072.159v-.035l-.037-.07-.017-.018-.018-.035zm15.006-2.817.089.089.249-.072-.338-.017zm-14.899.46.035.142v-.089l-.035-.054zm22.606.266.037.585.017-.105.089.105-.054.089-.035-.053v.16l.072.035-.072-.018v.214l-.177.229-.194.072.14.231-.124.266h-.017l-.072.052.053.125.159-.054.426-.461.159.035.249-.317-.072-.072-.194.072-.142-.161.035-.319-.07.196-.107-.159.089-.107-.054-.177.072-.159-.054.017-.072-.177-.052.054.017-.177-.054-.018zm-22.624.16v.07l.054.018-.054-.089zm17.309.301v.107l.072.035-.072-.142zm-.709.212-.017.196.142.266-.072-.054v.107l.124.194.161.107.105-.231.142.142.089-.338.018.072v-.389l-.319.105-.373-.177zm5.441.905-.072.017v.006l.072-.022zm-.072.022-.105.031-.48.495-.336.142-.159-.035-.354.231v.089l-.037-.054-.124.212.177.018.161.194.194-.07.177-.054.301-.424.161.017.142.018-.054-.07.089-.125.408-.266.052-.124h-.07l.107-.054-.231.037-.018-.209zm-21.975.675.059.127v-.011l-.059-.116zm.059.128v.026l.035.07.013.013-.013-.031-.035-.077zm.048.108.022.057.037.076v-.022l-.054-.105-.006-.005zm.059.133v.013l.052.107.011.011-.063-.131zm.063.131.042.087v-.009l-.035-.07-.007-.007zm.043.087v.026l.054.107.018.017-.072-.149zm20.25.009-.124.124.105-.018.018-.105zm2.677.089-.018.052.107-.035-.089-.017zm-22.767.229v.018l.07.142.018.017-.089-.177zm4.784 2.056-.054.107-.035-.072-.018.072-.089-.089.196.212-.018-.072.107-.017-.107-.018.07-.054-.052-.07zm9.39 1.293-.054.194-.55-.035.054.196-.159.054-.249-.161-.231-.017-.105.159-.266-.231.089.231-.142.035-.212.054-.249-.089-.14.035-.214-.124-.159.089-.159.247-.797-.229.035.124-.212-.018-.018.072-.018.07-.46-.07.142.212-.018.124-.212.054-.142.142-.266-.089-.196.229-.301-.052.089.089.249.124.052.124-.035.089-.017.07.14.161v.142l-.105-.037.054.125-.249-.054-.159.035-.249-.107-.406.354-.037.037-.177.052-.105-.07-.212.07.089.214.194.07-.105.018.089.089.035-.037.089.089-.107.018.107.07.247.303.177.089.249.124h-.037l-.105-.018.054.054-.231.035.07.054.177.035.035.054-.105.018.231.105.124.089.194.124.037.107v.018l.035.07.142.089-.107-.018.284.107h.017l.266.159v.018h.018l.124.035.301.161h-.159l.089.035h.089l.142.035.089.018.46.124.054.035.373.054h.14l.177.035.249.035.089.018h.851l.07-.018.336-.017h.142l.161-.037.247.037h.07l.037-.018.035.018.177-.018 1.028.089h.159l-.018.07.037.018.247.054-.018.017-.017.018.105-.018h.177v.007l.125-.007.105-.017.124-.018h.018l.107-.017.089-.018h-.037l.089-.018h.053l-.035-.017-.107.017h-.052l.07-.035h-.07l.052-.017h.249l.105-.037h-.07l.089-.017h-.035l.282-.072-.105.018-.161.018.054-.018-.212.035.107-.053-.303.053-.159-.017.478-.072.054-.035h-.124l.159-.018.018-.017.531-.161h.07l.373-.194.105-.018-.017.018.159-.035.161-.089.07-.054-.018-.054-.212.035-.177.072.072-.037-.373.037.177-.089-.089-.018h.231l.089-.07h.07l.177-.054h-.142l-.118.052-.076-.017.371-.159.125-.161.035-.035.247-.196-.266-.089-.142-.159.072-.07-.196.017h-.035l-.159-.142-.107.053-.142-.159-.07.07h-.161l-.052-.159-.214.07-.07-.017-.177-.054-.089.035-.408-.266-.035-.07-.159-.196-.303-.142-.105.107h-.124l.017-.196.212-.231.107.053-.035-.089.105-.07.089.017.037-.105.089.017.194-.089.089.037.231-.196.142-.018.035-.105-.054.054-.124-.266-.354-.107-.054-.089-.035-.089-.035-.07-.338-.126-.089-.14-.548-.054.054-.107-.319-.089.159-.07v-.072l-.194.053-.496-.105-.389-.089-.177-.231zm2.303 5.28-.072.017.142-.017h-.07zm-.48.059-.159.011-.089.018.196-.018h.052v-.011zm.762-.131-.07.018h.035l.054-.018h-.018z" style="fill:var(--color3, #fdfbe5)"/>
      <path d="M31.97 15.999c.044-5.482-2.98-10.847-7.694-13.642C19.523-.578 13.219-.71 8.344 2.018 3.486 4.627.196 9.931.078 15.45c-.282 5.816 2.986 11.621 8.084 14.422 4.838 2.807 11.167 2.751 15.955-.142 4.811-2.767 7.894-8.181 7.854-13.731z" opacity=".15" style="fill:var(--color2, #000)"/>
      <path fill="#fdfbe5" d="m30.705 12.961.018.107-.035-.089zM26.755 15.601l-.126.105.089-.035-.017.089-.266-.089zM26.347 15.779l.035.212-.159.019-.107-.126z" style="fill:var(--color3, #fdfbe5)"/>
      <path fill="#c02637" d="m24.557 21.075.072.072-.249.317-.159-.035-.426.461-.159.054-.053-.125.072-.052h.017l.124-.266-.14-.231.194-.072.177-.229v-.214l.072.018.02-.013.069.102.07-.196-.035.319.142.16zM24.629 22.936l-.107.035.019-.051z" style="fill:var(--color4, #c02637)"/>
      <path fill="#fdfbe5" d="m24.38 15.529.035.089-.07-.017v-.018zM24.114 14.716l.054.177-.07-.035-.037-.142zM23.991 14.308l.107.266-.107.018-.019-.196z" style="fill:var(--color3, #fdfbe5)"/>
      <path fill="#c02637" d="m24.114 20.42.054.177-.089.107.038.057-.02.013-.072-.035v-.161l.035.053.053-.088-.088-.105-.017.105-.037-.585.054.018-.017.177.051-.054.072.177.053-.017z" style="fill:var(--color4, #c02637)"/>
      <path fill="#fdfbe5" d="m23.158 15.637.566.778-.408-.371z" style="fill:var(--color3, #fdfbe5)"/>
      <path fill="#c02637" d="m23.389 21.537-.072.022v-.006zM23.317 21.559l.019.208.23-.037-.107.053h.07l-.051.123-.408.266-.089.125.054.07-.142-.018-.161-.017-.301.424-.177.053-.194.07-.161-.194-.177-.019.124-.212.037.053v-.089l.354-.23.159.035.336-.142.48-.495z" style="fill:var(--color4, #c02637)"/>
      <path fill="#fdfbe5" d="m23.105 13.049-.107-.035-.159-.194zM22.697 12.289l.177.389-.089-.123zM22.732 12.713l-.194-.107-.107-.051.035-.054.072.054zM22.538 12.324l-.231-.177-.142-.177zM21.9 12.058l.107.194-.16-.124zM21.953 11.898l-.142-.052-.123-.196z" style="fill:var(--color3, #fdfbe5)"/>
      <path fill="#c02637" d="m21.864 22.83-.018.105-.105.018z" style="fill:var(--color4, #c02637)"/>
      <path fill="#fdfbe5" d="m21.245 11.261.301.408h-.105l-.126-.177zM20.801 10.871l-.035.177-.142-.319-.135-.117zM20.517 11.065l.037.107-.285.123-.389.035-.338-.212.408.018.072-.125v.125l.212.017.212-.142-.053-.177.177.018.072.054zM20.428 16.469l-.07.284-.018-.089zM19.314 10.163l-.125.035-.123-.019zM18.657 20.42l.072.142-.072-.035zM18.64 20.704v.389l-.019-.072-.088.338-.142-.142-.105.231-.161-.107-.123-.194v-.107l.072.053-.142-.266.017-.196.373.177zM18.568 6.354l-.07.07-.018-.053zM17.557 11.936l.08-1.668.013-.033.868.334.336.303v.159l.497.212.053.142h-.249l.072.196.247.194.107.284.177-.018v.142l.194.053-.07.053.035.052.035.018.231.07-.196.107-.105-.107-.532-.124-.035-.035-.391-.531-.336-.124-.019-.089-.07.07-.035-.07.035.105-.247-.123.089.16-.161-.037.089.089-.408-.035.319.177-.212.142-.107-.07-.301.017-.009-.01zM17.011 11.492l-.037.123-.266.089h-.105l.159-.231zM16.603 19.25l-.249.072-.089-.089zM16.354 13.121l.053.194-.159-.017.017-.072zM16.407 9.967h-.247L16 9.914zM16.265 9.79l-.105.019-.177-.142zM15.771 10.907l.035.23-.161.177.037-.249-.018-.07z" style="fill:var(--color3, #fdfbe5)"/>
      <path fill="#fdfbe5" d="m15.645 10.109.089.142.037-.107.14.231.177-.072.177-.229.214-.019-.019-.089.231-.089.585.213.373.144-.013.033-.08 1.668-.006.006-.292-.326-.285.07.054-.194-.142-.089.16-.019-.196-.053.107-.035-.142-.142v-.177l-.089.018.018-.088-.816-.249-.159-.089.089-.051-.266-.019-.107-.089.053-.159-.088.247-.161.07-.017-.212-.249-.123h.214l.14-.107.125.089.089-.177.042-.005z" style="fill:var(--color3, #fdfbe5)"/>
      <path fill="#fdfbe5" d="m15.594 9.683.042.349-.042.005-.462.072-.089-.212h-.301l.089-.161.336-.142zM14.848 9.559l-.089.053-.212-.019zM14.778 9.755l-.019.105-.089-.089zM14.743 12.571l.053-.054.14.019-.159.142-.159-.195zM14.582 10.286l.142.231-.266-.126-.389.053-.085-.102.244-.076zM14.619 12.517l.07.107-.159.018zM14.582 9.967l-.017.07-.16-.017zM14.088 8.886v.142l-.072.018zM13.984 10.343l-.007.004.004-.007zM13.946 9.949l.035.037h-.212l.07-.072zM13.977 10.347l-.066.133.035-.123zM13.91 9.454l.035.177.105.159-.212-.159-.07-.319.159-.319.019.231-.107.105.301-.177-.017.125-.142.089.212.123zM13.822 9.648l.089.123-.126.018-.052-.088v-.019zM13.768 11.774l-.625.402-.071-.214.112-.081zM13.733 10.498l-.16.07-.177-.123.212-.07zM13.644 11.597l-.284.088.035-.088zM13.519 7.505l.053.282-.124.107v.142l-.123-.231-.089.142.07.177-.07.105-.035-.123-.072.053-.247-.107.053-.247-.161-.089v-.035l.196-.16.105.018.019-.123h.196l-.018-.196.212.107-.053.159zM13.307 6.671l.072.266-.208-.05-.004-.015.017-.094-.196-.177.23-.019z" style="fill:var(--color3, #fdfbe5)"/>
      <path fill="#fdfbe5" d="m13.17 6.887.066.21h-.089l.017.089-.159-.212-.018-.142.177.035.002.006zM13.201 10.074l-.249.07.035-.107zM13.165 11.739l-.017.053-.177.035.035-.088zM13.072 11.962l.071.214-.118.076-.142.089-.142.037.035-.107.019-.107zM13.041 7.186v.07l-.159.035-.053-.035.053-.053.053-.035zM12.953 11.774l-.035.089-.053-.053zM12.792 6.708l-.105.07.018-.142zM12.775 7.202v.019h-.011l-.077.123.072-.123.159-.319-.018.212zM12.722 9.967l-.159.089-.019-.089z" style="fill:var(--color3, #fdfbe5)"/>
      <path fill="#fdfbe5" d="m12.582 7.202.105-.212.088.035-.105.196.017.159-.07.072-.16-.177.088-.035zM12.67 6.848v.107l-.319.196v-.338l.247.089zM12.652 4.121l-.373.602-.177-.194.037-.107.406-.354zM12.633 11.03l-.14.123.035-.194.07-.177-.035.212zM12.563 11.774l.035.072-.142.07zM12.102 10.179l.338.301-.089.126.194.194-.212.035-.017.126-.126-.037v-.177l-.177-.105.037-.231-.089-.018-.142.107.089.69h-.124l-.16.019.018-.159v-.373l-.16.018-.052-.196.159-.247-.018-.196.107-.142.053.053-.018-.052.053-.018.177.177h.107l.14-.177.497-.053-.478.354zM12.51 10.871l-.017.089-.019.123-.089-.018.019-.159zM12.386 7.717l.319-.212.124.07-.054.107v.035l-.07.123-.212-.088-.126.212-.07-.035zM12.456 11.916l-.213.107-.443.017h-.053l.053-.054.107-.105.301.07zM12.404 8.037l-.089.07v-.089zM12.617 6.265l.07.124.053-.089.123.017.053.053-.107.035.053.107.107-.018-.035.125-.019-.089h-.177l-.196-.196v.177l-.212-.159-.123.105-.159-.035.089-.196-.089-.017-.037.089-.089-.072-.017-.052-.053-.196.053-.089h.017l.107.035.107-.513h.424l-.053.123.072.177-.319.354.053.196.14.105.018-.089zM12.279 6.547l-.052.196-.088.017-.072-.159-.105-.107zM12.032 12.34l-.089.089-.123-.052h-.019l-.266-.107.266-.107.019.019z" style="fill:var(--color3, #fdfbe5)"/>
      <path fill="#fdfbe5" d="m11.925 9.524.072-.159.833.052.336-.229-.247.336-1.081.107-.07.266-.053.018-.054-.16.054.017.035-.177.019-.035.07-.07zM11.624 7.221v-.107l.072.037.017-.16.035.212-.229.142-.019.019-.212.266-.231.159.443-.443zM11.482 9.524l-.159.07-.124-.07.035.089-.159.196.051.212-.194.142-.053-.037-.143.214.124.07-.07.213-.07-.017.052.07-.317.284-.107.052-.035-.213-.231.072v-.089l-.159-.037-.284.214-.053-.177-.354.105-.089-.46-.124.07.053-.089-.107-.07h.089l-.124-.037.035-.14-.089-.053v-.212l.129-.175.013.01.198.159.397-.079.159-.198.08.079.397-.119.436-.755h.416l.062.085-.196.035.284.284-.088.035.017.088zM11.253 11.916l.336.107-.566.193-.072-.105.089-.089.319.035-.159-.089zM10.934 12.023l-.019.159-.159-.019.07-.14zM10.738 16.947l.089.088-.266-.494.035-.727.107.177.053-.212.478-.426.142.037.408-.266.229-.088.266-.089.303-.426-.072-.231.177-.266.196.338-.019-.177.107.07v-.123l-.124-.035v-.142l.229.089.142-.053h-.142l.072-.159-.053.053-.035-.089.07-.126.16.089-.126-.105.177-.019-.105-.105.123-.142.089.105.019-.212.052.089.088-.089.019.089.07-.142.142.037.231.212-.053.213.035-.089.054.089-.035-.124.089-.089.142.035.017.107.037-.126.089.089.105-.14-.177-.089.107-.231.142-.053v-.177h.105l-.035-.089.107.07-.053-.07.123-.088.054.053.354-.035-.019-.142-.247-.089.054-.053.406.196.125-.037.051.126.161-.072.142.107.177-.107-.072.072.107-.037v.126l.142-.177.124.124-.142.123v.124l-.159.018.051.105-.177.338.338.283.62.284.142.177h.105l.161.018.301-.692-.035-.336.14-.338-.105-.017.142-.142.017-.284.107-.07.266.602.035.443.212-.052.212.229-.017.408.142.142.052.55.62.425.16.674.053-.054.052.089v-.159l.142.177.019-.089v.317l.212.177.284.568-.089.371.089.389-.142.354-.089.285-.212.284.035.088-.355.247-.196.355.053.053-.177.159-.107.478-.513.053-.054.053.107-.035-.389.177v.089l-.177-.142.035-.07H18l.107-.037-.035-.089-.319.266-.62-.266-.123-.159-.053-.07-.019-.284.019.035-.035-.089-.142-.123-.177.035.124-.231-.107-.177-.089.266-.212.037.053-.107h.089v-.196l.124-.159-.035-.301v.142l-.424.424v.124l-.196-.124.089.019-.177-.391-.159-.07.035-.123-.727-.266-1.205.283-.371.231-.142.266-.797.072h-.018l-.371.389-.284.017-.371-.14-.072-.231.142-.072-.018-.371-.266-.373-.035-.142-.07-.229-.532-.762.177.105-.05-.113z" style="fill:var(--color3, #fdfbe5)"/>
      <path fill="#fdfbe5" d="m10.633 16.842.074.17-.004.007zM10.684 12.075l-.159.142-.159-.159h.124zM10.528 8.68v.099l-.092-.062zM10.398 8.732l-.068.205-.103-.137z" style="fill:var(--color3, #fdfbe5)"/>
      <path fill="#fdfbe5" d="m10.367 12.058.035.159-.161-.017-.849.035-.461-.053-.247.07-.355-.017.017-.107-.319.019.142-.107.053-.177.55-.017.159.123.373-.053.159-.159.389.035.161.212.336-.035z" style="fill:var(--color3, #fdfbe5)"/>
      <path fill="#fdfbe5" d="m10.241 11.774-.14.089-.196-.035zM9.782 5.468l.017.07-.194.231-.212.142-.126-.019-.052-.177.177-.159zM9.127 9.72l.317.017.072-.354.424-.177.249-.389.037-.015.103.137.068-.205.038-.015.092.062v-.099l.016-.007.07-.089-.053-.035.123-.053.249-.389.017.123.089-.123.142.123-.054.124.125-.052-.018.089.107-.037.229.072-.301.159.107.107-.301.089.027.038h-.416l-.436.755-.397.119-.08-.079-.159.198-.397.079-.198-.159-.013-.01.067-.091zM8.735 9.17l.019.053-.053.089-.035-.072zM8.741 6.515v.219l-.4.2-.037-.259-.238-.476-.357.159-.318.159.159-.357-.249-.107.05-.013.278-.278.159.04v-.357l.198.049v.189l.278.04.119.079-.238.119.317.238zM8.735 10.923l-.07.142v.018h-.107l.018-.177z" style="fill:var(--color3, #fdfbe5)"/>
      <path fill="#fdfbe5" d="m8.329 7.859.017.035.053.088-.159-.072.07.126-.231.194-.105.019.089-.301-.132-.044.253-.158.159-.238.397-.278v-.715l-.278-.357-.317-.238.238-.119-.119-.079-.278-.04v-.189l.119.03.278-.278.357-.238.198.119v.159h.291l-.103.023L9 5.432l-.177.037.037.052h-.053l-.019.088-.177.126-.105.213.266.354.247.105.124.16.053.548-.07.019-.072.301-.459.319-.126-.019v.053l-.07.019.07.035H8.38l.018.035H8.38z" style="fill:var(--color3, #fdfbe5)"/>
      <path fill="#fdfbe5" d="m8.304 6.674.037.259-.037.019-.755.199-.04.397-.008.02-.112-.046-.212.072.051-.196-.229.107-.019.159v.035l-.013.022v.004l-.005.028v.018l-.068.127-.06-.032v-.357l-.199-.278.238-.318-.238-.317.199-.119v-.159l.357-.238.109-.027.249.107-.159.357.318-.159.357-.159zM8.241 10.941l.14.019-.035.123-.177-.018-.054-.159-.159.017.054-.124.177-.053z" style="fill:var(--color3, #fdfbe5)"/>
      <path fill="#fdfbe5" d="m8.08 10.977.123.196-.07.725-.107-.105-.017.105-.161-.035.019.107-.142-.123-.585-.408-.301-.531-.089-.054-.193-.142-.072-.354-.231-.07-.177-.284-.266-.142-.052-.212.478-.089.159.16-.035.089.354.123.053.054.212.212.019-.142.317.301.107-.017.054.052-.107.088.161-.123.089.053-.107.266.266.018.018.247h.105l-.035.142.035-.089zM7.922 10.48l-.124.019v-.07zM7.833 10.109v.105l-.035-.035h-.053zM7.567 9.79l.194.301-.089-.054-.105.126-.496-.249-.159-.319-.072-.513-.002-.003.036.018.159.159h.119l.159-.199.016-.022.204.153.052.177zM7.567 7.594l-.065-.026.008-.02.04-.397.755-.199.037-.019.4-.2v.496l-.397.278-.159.238-.253.158-.134-.045-.053.07v-.159l-.107.089z" style="fill:var(--color3, #fdfbe5)"/>
      <path fill="#fdfbe5" d="m7.39 10.286.07.053h-.142l.019-.072zM7.337 10.233l-.054.088v-.018l-.017-.089zM7.113 4.848l-.061.034-.019-.034h-.159l-.318.159-.318.238v-.238l.596-.318.317-.159v.079h.179l-.1.119zM6.875 11.455v.088l-.07-.123zM6.609 8.354l.019-.089-.025.041-.006-.004.238-.437.06.032-.179.332v.089l-.019.161.142-.037.019.125.07.336.249.019.15.112-.016.022-.159.199h-.119l-.159-.159-.036-.018-.015-.032-.266-.319-.089.07z" style="fill:var(--color3, #fdfbe5)"/>
      <path fill="#fdfbe5" d="m6.698 7.948-.07-.037.089-.213-.07-.23-.037.107-.017-.284.013-.067.031.006.199.278v.357l-.238.437.006.004-.029.048v-.159zM6.521 11.03l.072.196-.142-.107zM6.292 10.587l-.018.107-.089-.053-.07-.089.051-.053zM6.239 5.006v.238l-.476.199v-.159z" style="fill:var(--color3, #fdfbe5)"/>
      <path fill="#fdfbe5" d="m6.096 7.202-.053.089-.053-.052-.052.07.07-.107-.107.089.16-.371v-.355l-.002.006-.017-.094-.142.017.053-.105-.089.105-.028-.176.004-.001.357-.556.199-.159.357-.556.357-.198.119-.119.1-.119.099-.119.079.159v.238l-.357.357-.079.08.238-.04v.198l.079.278h.238l-.278.278-.159.04-.357.238v.159l-.199.119.238.317-.238.318-.031-.006.058-.304-.089.035-.053-.177-.035.142-.105.105-.053-.052.035.07-.142.089-.07.123z" style="fill:var(--color3, #fdfbe5)"/>
      <path fill="#fdfbe5" d="m6.06 6.571.002.011-.009.004zM6.052 6.586l-.045.104-.053-.07zM5.99 10.356l-.177-.053.072-.017zM5.53 9.401l-.035.07-.019-.089zM5.511 8.088l-.035.126-.035-.053z" style="fill:var(--color3, #fdfbe5)"/>
    </symbol>
  </defs>
</svg>