<svg xmlns="http://www.w3.org/2000/svg" aria-hidden="true" style="position:absolute;width:0;height:0;overflow:hidden">
  <defs>
    <symbol id="icon-gb" viewBox="0 0 43 32">
      <path fill="#012169" d="M0 0h42.667v32H0z" style="fill:var(--color1, #012169)"/>
      <path fill="#fff" d="m5 0 16.267 12.067L37.467 0h5.2v4.133l-16 11.933 16 11.867V32h-5.333l-16-11.933L5.401 32h-5.4v-4l15.933-11.867L.001 4.266V-.001z" style="fill:var(--color2, #fff)"/>
      <path fill="#c8102e" d="m28.267 18.733 14.4 10.6V32L24.6 18.733zM16 20.067l.4 2.333L3.6 32H0zM42.667 0v.2l-16.6 12.533L26.2 9.8 39.333 0zM0 0l15.933 11.733h-4L0 2.8z" style="fill:var(--color3, #c8102e)"/>
      <path fill="#fff" d="M16.067 0v32h10.667V0zM0 10.667v10.667h42.667V10.667z" style="fill:var(--color2, #fff)"/>
      <path fill="#c8102e" d="M0 12.867v6.4h42.667v-6.4zM18.2 0v32h6.4V0z" style="fill:var(--color3, #c8102e)"/>
    </symbol>
    <symbol id="icon-de" viewBox="0 0 43 32">
      <path fill="#ffce00" d="M0 21.333h42.667V32H0z" style="fill:var(--color4, #ffce00)"/>
      <path fill="#000001" d="M0 0h42.667v10.667H0z" style="fill:var(--color5, #000001)"/>
      <path fill="red" d="M0 10.667h42.667v10.667H0z" style="fill:var(--color6, #f00)"/>
    </symbol>
    <symbol id="icon-pl" viewBox="0 0 43 32">
      <path fill="#fff" d="M42.667 32H0V0h42.667z" style="fill:var(--color2, #fff)"/>
      <path fill="#dc143c" d="M42.667 32H0V16h42.667z" style="fill:var(--color7, #dc143c)"/>
    </symbol>
    <symbol id="icon-nz" viewBox="0 0 43 32">
      <path fill="#00247d" d="M0 0h42.667v32H0z" style="fill:var(--color1, #00247d)"/>
      <path fill="#fff" d="M32.695 7.146v1.011l2.023-1.011z" style="fill:var(--color2, #fff)"/>
      <path fill="#fff" d="m33.099 8.359-.404-.809 2.023-.404z" style="fill:var(--color2, #fff)"/>
      <path fill="#fff" d="M32.695 7.146v1.011l-2.023-1.011z" style="fill:var(--color2, #fff)"/>
      <path fill="#fff" d="m32.291 8.359.404-.809-2.023-.404z" style="fill:var(--color2, #fff)"/>
      <path fill="#fff" d="m33.272 7.565-.962.313 1.587 1.611z" style="fill:var(--color2, #fff)"/>
      <path fill="#fff" d="m32.243 8.325.644-.635 1.01 1.799z" style="fill:var(--color2, #fff)"/>
      <path fill="#fff" d="m32.118 7.565.962.313-.337-2.236z" style="fill:var(--color2, #fff)"/>
      <path fill="#fff" d="m33.397 7.555-.894.135.24-2.049zM32.118 7.565l.962.313-1.587 1.611z" style="fill:var(--color2, #fff)"/>
      <path fill="#fff" d="m33.147 8.325-.644-.635-1.01 1.799z" style="fill:var(--color2, #fff)"/>
      <path fill="#cc142b" d="M32.695 7.352v.668l1.337-.668z" style="fill:var(--color3, #cc142b)"/>
      <path fill="#cc142b" d="m32.962 8.154-.267-.535 1.337-.267zM32.695 7.352v.668l-1.337-.668z" style="fill:var(--color3, #cc142b)"/>
      <path fill="#cc142b" d="m32.428 8.154.267-.535-1.337-.267z" style="fill:var(--color3, #cc142b)"/>
      <path fill="#cc142b" d="m33.076 7.629-.636.207 1.049 1.065z" style="fill:var(--color3, #cc142b)"/>
      <path fill="#cc142b" d="m32.396 8.131.426-.419.667 1.188z" style="fill:var(--color3, #cc142b)"/>
      <path fill="#cc142b" d="m32.314 7.629.636.207-.223-1.478z" style="fill:var(--color3, #cc142b)"/>
      <path fill="#cc142b" d="m33.159 7.622-.591.089.159-1.354zM32.314 7.629l.636.207-1.049 1.065z" style="fill:var(--color3, #cc142b)"/>
      <path fill="#cc142b" d="m32.994 8.131-.426-.419-.667 1.188z" style="fill:var(--color3, #cc142b)"/>
      <path fill="#fff" d="M37.995 11.813v.9l1.8-.9z" style="fill:var(--color2, #fff)"/>
      <path fill="#fff" d="m38.355 12.893-.36-.72 1.8-.36zM37.995 11.813v.9l-1.8-.9z" style="fill:var(--color2, #fff)"/>
      <path fill="#fff" d="m37.635 12.893.36-.72-1.8-.36z" style="fill:var(--color2, #fff)"/>
      <path fill="#fff" d="m38.508 12.186-.856.278 1.412 1.434z" style="fill:var(--color2, #fff)"/>
      <path fill="#fff" d="m37.592 12.863.573-.565.899 1.601z" style="fill:var(--color2, #fff)"/>
      <path fill="#fff" d="m37.481 12.186.856.278-.3-1.99z" style="fill:var(--color2, #fff)"/>
      <path fill="#fff" d="m38.619 12.178-.796.12.214-1.823z" style="fill:var(--color2, #fff)"/>
      <path fill="#fff" d="m37.481 12.186.856.278-1.412 1.434z" style="fill:var(--color2, #fff)"/>
      <path fill="#fff" d="m38.397 12.863-.573-.565-.899 1.601z" style="fill:var(--color2, #fff)"/>
      <path fill="#cc142b" d="M37.995 12.019v.557l1.114-.557z" style="fill:var(--color3, #cc142b)"/>
      <path fill="#cc142b" d="m38.217 12.687-.223-.446 1.114-.223z" style="fill:var(--color3, #cc142b)"/>
      <path fill="#cc142b" d="M37.995 12.019v.557l-1.114-.557z" style="fill:var(--color3, #cc142b)"/>
      <path fill="#cc142b" d="m37.772 12.687.223-.446-1.114-.223z" style="fill:var(--color3, #cc142b)"/>
      <path fill="#cc142b" d="m38.312 12.25-.53.172.874.887z" style="fill:var(--color3, #cc142b)"/>
      <path fill="#cc142b" d="m37.746 12.668.355-.35.556.99z" style="fill:var(--color3, #cc142b)"/>
      <path fill="#cc142b" d="m37.677 12.25.53.172-.185-1.231z" style="fill:var(--color3, #cc142b)"/>
      <path fill="#cc142b" d="m38.381 12.245-.493.074.132-1.128z" style="fill:var(--color3, #cc142b)"/>
      <path fill="#cc142b" d="m37.677 12.25.53.172-.874.887z" style="fill:var(--color3, #cc142b)"/>
      <path fill="#cc142b" d="m38.244 12.668-.355-.35-.556.99z" style="fill:var(--color3, #cc142b)"/>
      <path fill="#fff" d="M26.522 13.361v1.011l2.023-1.011z" style="fill:var(--color2, #fff)"/>
      <path fill="#fff" d="m26.927 14.574-.404-.809 2.023-.405zM26.522 13.361v1.011l-2.023-1.011z" style="fill:var(--color2, #fff)"/>
      <path fill="#fff" d="m26.118 14.574.404-.809-2.023-.405z" style="fill:var(--color2, #fff)"/>
      <path fill="#fff" d="m27.099 13.78-.962.313 1.587 1.611z" style="fill:var(--color2, #fff)"/>
      <path fill="#fff" d="m26.07 14.54.644-.635 1.01 1.799z" style="fill:var(--color2, #fff)"/>
      <path fill="#fff" d="m25.945 13.78.962.313-.337-2.236z" style="fill:var(--color2, #fff)"/>
      <path fill="#fff" d="m27.224 13.77-.894.135.24-2.049zM25.945 13.78l.962.313-1.587 1.611z" style="fill:var(--color2, #fff)"/>
      <path fill="#fff" d="m26.974 14.54-.644-.635-1.01 1.799z" style="fill:var(--color2, #fff)"/>
      <path fill="#cc142b" d="M26.522 13.567v.668l1.337-.668z" style="fill:var(--color3, #cc142b)"/>
      <path fill="#cc142b" d="m26.79 14.369-.267-.535 1.337-.267zM26.522 13.567v.668l-1.337-.668z" style="fill:var(--color3, #cc142b)"/>
      <path fill="#cc142b" d="m26.255 14.369.267-.535-1.337-.267z" style="fill:var(--color3, #cc142b)"/>
      <path fill="#cc142b" d="m26.904 13.844-.636.207 1.049 1.065z" style="fill:var(--color3, #cc142b)"/>
      <path fill="#cc142b" d="m26.224 14.346.426-.419.667 1.188z" style="fill:var(--color3, #cc142b)"/>
      <path fill="#cc142b" d="m26.141 13.844.636.207-.223-1.478z" style="fill:var(--color3, #cc142b)"/>
      <path fill="#cc142b" d="m26.986 13.837-.591.089.159-1.354zM26.141 13.844l.636.207-1.049 1.065z" style="fill:var(--color3, #cc142b)"/>
      <path fill="#cc142b" d="m26.821 14.346-.426-.419-.667 1.188z" style="fill:var(--color3, #cc142b)"/>
      <path fill="#fff" d="M32.695 23.117v1.123l2.245-1.123z" style="fill:var(--color2, #fff)"/>
      <path fill="#fff" d="m33.144 24.464-.449-.898 2.245-.449zM32.695 23.117v1.123l-2.245-1.123z" style="fill:var(--color2, #fff)"/>
      <path fill="#fff" d="m32.246 24.464.449-.898-2.245-.449z" style="fill:var(--color2, #fff)"/>
      <path fill="#fff" d="m33.336 23.582-1.068.347 1.762 1.788z" style="fill:var(--color2, #fff)"/>
      <path fill="#fff" d="m32.193 24.426.715-.705 1.121 1.997z" style="fill:var(--color2, #fff)"/>
      <path fill="#fff" d="m32.054 23.582 1.068.347-.374-2.482z" style="fill:var(--color2, #fff)"/>
      <path fill="#fff" d="m33.474 23.572-.993.15.267-2.274z" style="fill:var(--color2, #fff)"/>
      <path fill="#fff" d="m32.054 23.582 1.068.347-1.762 1.788z" style="fill:var(--color2, #fff)"/>
      <path fill="#fff" d="m33.197 24.426-.715-.705-1.121 1.997z" style="fill:var(--color2, #fff)"/>
      <path fill="#cc142b" d="M32.695 23.323v.78l1.559-.78z" style="fill:var(--color3, #cc142b)"/>
      <path fill="#cc142b" d="m33.007 24.258-.312-.624 1.559-.312zM32.695 23.323v.78l-1.559-.78z" style="fill:var(--color3, #cc142b)"/>
      <path fill="#cc142b" d="m32.383 24.258.312-.624-1.559-.312z" style="fill:var(--color3, #cc142b)"/>
      <path fill="#cc142b" d="m33.14 23.646-.741.241 1.223 1.242z" style="fill:var(--color3, #cc142b)"/>
      <path fill="#cc142b" d="m32.346 24.232.497-.489.778 1.387z" style="fill:var(--color3, #cc142b)"/>
      <path fill="#cc142b" d="m32.25 23.646.741.241-.26-1.724z" style="fill:var(--color3, #cc142b)"/>
      <path fill="#cc142b" d="m33.236 23.639-.69.104.185-1.579z" style="fill:var(--color3, #cc142b)"/>
      <path fill="#cc142b" d="m32.25 23.646.741.241-1.223 1.242z" style="fill:var(--color3, #cc142b)"/>
      <path fill="#cc142b" d="m33.044 24.232-.497-.489-.778 1.387z" style="fill:var(--color3, #cc142b)"/>
      <path fill="#012169" d="M0 0h21.333v16H0z" style="fill:var(--color4, #012169)"/>
      <path fill="#fff" d="m2.5 0 8.133 6.033L18.733 0h2.6v2.067l-8 5.967 8 5.933V16h-2.667l-8-5.967L2.699 16h-2.7v-2l7.967-5.933-7.967-5.933V.001z" style="fill:var(--color2, #fff)"/>
      <path fill="#c8102e" d="m14.133 9.367 7.2 5.3V16L12.3 9.367zM8 10.033l.2 1.167L1.8 16H0zM21.333 0v.1l-8.3 6.267L13.1 4.9 19.667 0zM0 0l7.967 5.867h-2L0 1.4z" style="fill:var(--color5, #c8102e)"/>
      <path fill="#fff" d="M8.033 0v16h5.333V0zM0 5.333v5.333h21.333V5.333z" style="fill:var(--color2, #fff)"/>
      <path fill="#c8102e" d="M0 6.433v3.2h21.333v-3.2zM9.1 0v16h3.2V0z" style="fill:var(--color5, #c8102e)"/>
    </symbol>
  </defs>
</svg>